<?xml version="1.0" standalone="no"?>
<!DOCTYPE svg PUBLIC "-//W3C//DTD SVG 20010904//EN"
 "http://www.w3.org/TR/2001/REC-SVG-20010904/DTD/svg10.dtd">
<svg version="1.0" xmlns="http://www.w3.org/2000/svg"
 width="300.000000pt" height="300.000000pt" viewBox="0 0 300.000000 300.000000"
 preserveAspectRatio="xMidYMid meet">
<metadata>
Created by potrace 1.11, written by Peter Selinger 2001-2013
</metadata>
<g transform="translate(0.000000,300.000000) scale(0.100000,-0.100000)"
fill="#000000" stroke="none">
<path d="M18 2532 c-14 -3 -16 -106 -14 -1030 l1 -1027 470 -1 c465 -2 546 2
685 35 54 12 179 55 207 70 31 16 46 61 33 96 -23 61 -60 68 -166 31 -74 -26
-190 -52 -270 -61 -39 -4 -547 -8 -751 -6 l-42 1 0 863 0 862 372 -1 c410 -1
473 -5 591 -35 201 -50 334 -123 454 -248 91 -94 123 -156 214 -411 38 -107
82 -231 98 -275 16 -44 52 -146 81 -227 28 -82 55 -148 60 -148 4 0 11 10 14
23 4 12 24 69 46 127 35 96 81 226 214 595 25 72 49 137 52 145 14 34 13 62
-4 90 -34 58 -118 48 -146 -18 -13 -31 -116 -314 -158 -434 -13 -37 -29 -51
-29 -26 0 7 -11 42 -24 78 -14 36 -43 119 -67 185 -92 264 -198 414 -380 541
-60 42 -218 124 -240 124 -5 0 -17 4 -27 9 -9 6 -53 19 -97 30 -154 39 -225
43 -726 45 -239 0 -442 0 -451 -2z"/>
<path d="M2574 2520 c-117 -27 -244 -156 -244 -248 0 -36 42 -81 73 -78 47 6
65 18 88 62 25 49 72 91 110 100 51 11 90 10 107 -2 9 -7 24 -14 33 -14 41 0
102 -107 94 -162 -19 -126 -19 -123 13 -150 29 -24 45 -27 88 -13 37 11 59 78
59 175 0 72 -5 94 -28 141 -57 118 -165 190 -290 194 -40 2 -86 -1 -103 -5z"/>
<path d="M561 2044 l-30 -25 -1 -540 0 -539 27 -1 c69 -2 367 2 372 5 3 2 28
7 56 10 69 10 191 63 216 94 33 42 14 103 -39 123 -17 7 -40 2 -93 -21 -87
-37 -144 -47 -273 -49 l-102 -2 1 440 c0 243 -3 454 -8 471 -14 55 -80 73
-126 34z"/>
<path d="M988 2020 c-34 -26 -45 -73 -24 -105 8 -13 49 -39 90 -59 103 -50
148 -103 208 -248 26 -62 120 -288 208 -503 89 -214 173 -410 187 -434 53 -92
159 -171 268 -200 50 -14 156 -14 214 0 109 25 219 105 274 200 14 24 71 159
127 299 56 140 108 269 115 285 7 17 27 66 44 110 18 44 36 89 41 100 50 107
118 300 114 323 -14 77 -122 93 -154 23 -7 -14 -104 -255 -217 -536 -226 -562
-235 -579 -331 -623 -149 -68 -312 0 -377 158 -10 25 -26 63 -36 85 -23 55
-196 472 -286 690 -40 99 -88 204 -106 234 -41 69 -119 138 -201 179 -86 43
-125 48 -158 22z"/>
</g>
</svg>
